# xmcd
#
# Track frame offsets:
#	150
#	19547
#	36158
#	49576
#	64418
#	81218
#	97541
#	114066
#	127084
#	141415
#	155205
#	170941
#	185319
#	202963
#	216724
#	231347
#	249058
#
# Disc length: 3484 seconds
#
# Revision: 1
# Processed by: cddbd v1.5.1PL2 Copyright (c) Steve Scherf et al.
# Submitted via: audiograbber 1.83.01
#
DISCID=ee0d9a11
DTITLE=Anne Murray - thmpl04
DYEAR=1900
DGENRE=
TTITLE0=Murray, Anne - You Needed Me
TTITLE1=Murray, Anne - Love Song
TTITLE2=Murray, Anne - Could I Have This Dance
TTITLE3=Murray, Anne and Loggins, Dave - Nobody Loves Me Like You Do
TTITLE4=Murray, Anne - Sweet Little Jesus Boy
TTITLE5=Murray, Anne - There Goes My Everything
TTITLE6=Murray, Anne - Cotton Jenny
TTITLE7=Murray, Anne - Put Your Hand In The Hand
TTITLE8=Murray, Anne - I'll Be Your Baby Tonight
TTITLE9=Murray, Anne - A Little Good News
TTITLE10=Murray, Anne - Blessed Are The Believers
TTITLE11=Murray, Anne - Brokenhearted Me
TTITLE12=Murray, Anne - He Thinks I Still Care
TTITLE13=Murray, Anne - Son Of A Rotten Gambler
TTITLE14=Murray, Anne - I Can See Arkansas
TTITLE15=Murray, Anne - I Just Fall In Love Again
TTITLE16=Murray, Anne - A Stranger In My Place
EXTD=
EXTT0=
EXTT1=
EXTT2=
EXTT3=
EXTT4=
EXTT5=
EXTT6=
EXTT7=
EXTT8=
EXTT9=
EXTT10=
EXTT11=
EXTT12=
EXTT13=
EXTT14=
EXTT15=
EXTT16=
PLAYORDER=
